<svg xmlns="http://www.w3.org/2000/svg" width="24" height="24" viewBox="0 0 24 24">
    <g fill="none" fill-rule="evenodd">
        <g>
            <g>
                <g>
                    <g>
                        <path d="M0 0L24 0 24 24 0 24z" transform="translate(-163 -394) translate(139 248) translate(0 134) translate(24 12)"/>
                        <path fill="#141029" fill-opacity=".4" fill-rule="nonzero" d="M6 10c.552 0 1 .448 1 1v7c0 .552-.448 1-1 1s-1-.448-1-1v-7c0-.552.448-1 1-1zm6-5c.552 0 1 .448 1 1v12c0 .552-.448 1-1 1s-1-.448-1-1V6c0-.552.448-1 1-1zm6 8c.552 0 1 .448 1 1v4c0 .552-.448 1-1 1s-1-.448-1-1v-4c0-.552.448-1 1-1z" transform="translate(-163 -394) translate(139 248) translate(0 134) translate(24 12)"/>
                    </g>
                </g>
            </g>
        </g>
    </g>
</svg>
