<svg xmlns="http://www.w3.org/2000/svg" width="18" height="16" viewBox="0 0 18 16">
    <g fill="none" fill-rule="evenodd">
        <g>
            <g>
                <g>
                    <g>
                        <g>
                            <path d="M0 0L16.058 0 16.058 16 0 16z" transform="translate(-605 -839) translate(139 688) translate(310 78) translate(0 62) translate(156.565 11)"/>
                            <path fill="#FF5C4E" d="M11.435 3.04c-.469-.687-1.004-1.327-1.606-1.9-.234-.227-.63-.013-.562.307.127.626.26 1.453.26 2.193 0 1.373-.903 2.487-2.28 2.487-1.031 0-1.874-.62-2.242-1.507-.067-.133-.094-.213-.134-.36-.074-.28-.442-.367-.602-.12-.12.18-.234.36-.341.553-.797 1.36-1.252 2.947-1.252 4.64 0 2.947 2.396 5.334 5.353 5.334s5.353-2.387 5.353-5.334c0-2.326-.723-4.486-1.947-6.293zm-3.6 9.627c-1.191 0-2.154-.934-2.154-2.094 0-1.08.702-1.84 1.88-2.08.983-.2 1.993-.62 2.696-1.28.187-.173.495-.093.549.154.154.68.234 1.386.234 2.1.007 1.766-1.432 3.2-3.205 3.2z" transform="translate(-605 -839) translate(139 688) translate(310 78) translate(0 62) translate(156.565 11)"/>
                        </g>
                    </g>
                </g>
            </g>
        </g>
    </g>
</svg>
