<svg xmlns="http://www.w3.org/2000/svg" width="24" height="24" viewBox="0 0 24 24">
    <g fill="none" fill-rule="evenodd">
        <g>
            <g>
                <g>
                    <g>
                        <path d="M0 0L24 0 24 24 0 24z" transform="translate(-163 -338) translate(139 248) translate(0 78) translate(24 12)"/>
                        <path fill="#141029" fill-opacity=".4" fill-rule="nonzero" d="M12 3c4.97 0 9 3.582 9 8 0 1.909-.752 3.661-2.007 5.036.005.096.007.193.007.29V19c0 .552-.448 1-1 1h-.48c-1.337 0-2.578-.44-3.581-1.186-.624.122-1.273.186-1.939.186-4.97 0-9-3.582-9-8s4.03-8 9-8zm5 13.325c0-.064-.002-.13-.005-.196l-.038-.829.559-.612C18.478 13.634 19 12.348 19 11c0-3.258-3.085-6-7-6s-7 2.742-7 6 3.085 6 7 6c.53 0 1.05-.05 1.555-.15l.869-.17.71.53c.547.408 1.186.668 1.866.756v-1.64z" transform="translate(-163 -338) translate(139 248) translate(0 78) translate(24 12)"/>
                    </g>
                </g>
            </g>
        </g>
    </g>
</svg>
