<svg xmlns="http://www.w3.org/2000/svg" width="20" height="20" viewBox="0 0 20 20">
    <g fill="none" fill-rule="evenodd">
        <g>
            <g>
                <g>
                    <g>
                        <g>
                            <path d="M0 0L20 0 20 20 0 20z" transform="translate(-1080 -2056) translate(967 1896) translate(16 30) translate(97 128) translate(0 2)"/>
                            <path fill="#16B862" fill-rule="nonzero" d="M10.833 15.833V6.525l4.067 4.067c.325.325.858.325 1.183 0 .325-.325.325-.85 0-1.175l-5.491-5.492c-.325-.325-.85-.325-1.175 0l-5.5 5.483c-.325.325-.325.85 0 1.175.325.325.85.325 1.175 0l4.075-4.058v9.308c0 .459.375.834.833.834.458 0 .833-.375.833-.834z" transform="translate(-1080 -2056) translate(967 1896) translate(16 30) translate(97 128) translate(0 2)"/>
                        </g>
                    </g>
                </g>
            </g>
        </g>
    </g>
</svg>
