<svg xmlns="http://www.w3.org/2000/svg" width="16" height="16" viewBox="0 0 16 16">
  <g fill="none" fill-rule="evenodd">
    <g>
      <g>
        <g>
          <g>
            <path d="M0 0H16V16H0z" transform="translate(-1245 -1839) translate(1225 1409) translate(0 420) translate(20 10)"/>
            <g fill="#141029" fill-opacity=".6" fill-rule="nonzero">
              <path d="M6.667 4c1.472 0 2.666 1.194 2.666 2.667 0 1.472-1.194 2.666-2.666 2.666C5.194 9.333 4 8.14 4 6.667 4 5.194 5.194 4 6.667 4m0 1.333c-.737 0-1.334.597-1.334 1.334C5.333 7.403 5.93 8 6.667 8 7.403 8 8 7.403 8 6.667c0-.737-.597-1.334-1.333-1.334m-1.334 8c-.166 0-.306-.12-.333-.28l-.247-1.766c-.42-.167-.78-.394-1.126-.66l-1.66.673c-.147.053-.327 0-.407-.147L.227 8.847C.14 8.7.18 8.52.307 8.42l1.406-1.107-.046-.646L1.713 6 .307 4.913c-.127-.1-.167-.28-.08-.426L1.56 2.18c.08-.147.26-.207.407-.147l1.66.667c.346-.26.706-.487 1.126-.653L5 .28c.027-.16.167-.28.333-.28H8c.167 0 .307.12.333.28l.247 1.767c.42.166.78.393 1.127.653l1.66-.667c.146-.06.326 0 .406.147l1.334 2.307c.086.146.046.326-.08.426L11.62 6l.047.667-.047.666 1.407 1.087c.126.1.166.28.08.427l-1.334 2.306c-.08.147-.26.207-.406.147l-1.66-.667c-.347.26-.707.487-1.127.654l-.247 1.766c-.026.16-.166.28-.333.28H5.333m.834-12l-.247 1.74c-.8.167-1.507.594-2.02 1.187l-1.607-.693-.5.866L3.2 5.467c-.267.78-.267 1.626 0 2.4l-1.413 1.04.5.866 1.62-.693c.513.587 1.213 1.013 2.006 1.173L6.16 12h1.013l.247-1.74c.793-.167 1.493-.593 2.007-1.18l1.62.693.5-.866-1.414-1.034c.267-.78.267-1.626 0-2.406l1.407-1.034-.5-.866-1.607.693c-.513-.593-1.22-1.02-2.02-1.18l-.246-1.747h-1z" transform="translate(-1245 -1839) translate(1225 1409) translate(0 420) translate(20 10) translate(1.333 1.333)"/>
            </g>
          </g>
        </g>
      </g>
    </g>
  </g>
</svg>
