<?xml version="1.0" standalone="no"?>
<!DOCTYPE svg PUBLIC "-//W3C//DTD SVG 20010904//EN"
 "http://www.w3.org/TR/2001/REC-SVG-20010904/DTD/svg10.dtd">
<svg version="1.0" xmlns="http://www.w3.org/2000/svg"
 width="700.000000pt" height="700.000000pt" viewBox="0 0 700.000000 700.000000"
 preserveAspectRatio="xMidYMid meet">
<metadata>
Created by potrace 1.11, written by Peter Selinger 2001-2013
</metadata>
<g transform="translate(0.000000,700.000000) scale(0.100000,-0.100000)"
fill="#000000" stroke="none">
<path d="M0 3500 l0 -3500 3500 0 3500 0 0 3500 0 3500 -3500 0 -3500 0 0
-3500z m2804 511 c387 -650 707 -1183 712 -1183 5 0 321 532 702 1183 l693
1184 199 3 200 2 0 -1700 0 -1700 -230 0 -230 0 -1 878 c-1 482 -4 1036 -8
1230 l-6 353 -606 -1018 -606 -1018 -115 -3 -115 -3 -609 1016 -609 1015 -3
-1225 -2 -1225 -233 2 -232 3 -3 1685 c-1 927 0 1691 3 1698 3 10 49 12 201
10 l196 -3 702 -1184z"/>
</g>
</svg>
