<svg xmlns="http://www.w3.org/2000/svg" width="20" height="20" viewBox="0 0 20 20">
    <g fill="none" fill-rule="evenodd">
        <g>
            <g>
                <g>
                    <g>
                        <g>
                            <g>
                                <path d="M0 0L20 0 20 20 0 20z" transform="translate(-517 -454) translate(400 206) translate(16 56) translate(0 48) translate(16 144) translate(85)"/>
                                <path fill="currentColor" fill-rule="nonzero" d="M15.833 9.167H6.525L10.592 5.1c.325-.325.325-.858 0-1.183-.325-.325-.85-.325-1.175 0L3.925 9.408c-.325.325-.325.85 0 1.175l5.492 5.492c.325.325.85.325 1.175 0 .325-.325.325-.85 0-1.175l-4.067-4.067h9.308c.459 0 .834-.375.834-.833 0-.458-.375-.833-.834-.833z" transform="translate(-517 -454) translate(400 206) translate(16 56) translate(0 48) translate(16 144) translate(85) rotate(-135 10.174 9.996)"/>
                            </g>
                        </g>
                    </g>
                </g>
            </g>
        </g>
    </g>
</svg>
