<svg xmlns="http://www.w3.org/2000/svg" width="20" height="20" viewBox="0 0 20 20">
    <g fill="none" fill-rule="evenodd">
        <g>
            <g>
                <g>
                    <g>
                        <g>
                            <path d="M0 0L20 0 20 20 0 20z" transform="translate(-432 -454) translate(400 206) translate(16 56) translate(0 48) translate(16 144)"/>
                            <path fill="currentColor" fill-rule="nonzero" d="M4.167 10.833h9.308L9.408 14.9c-.325.325-.325.858 0 1.183.325.325.85.325 1.175 0l5.492-5.491c.325-.325.325-.85 0-1.175l-5.483-5.5c-.325-.325-.85-.325-1.175 0-.325.325-.325.85 0 1.175l4.058 4.075H4.167c-.459 0-.834.375-.834.833 0 .458.375.833.834.833z" transform="translate(-432 -454) translate(400 206) translate(16 56) translate(0 48) translate(16 144) rotate(-45 9.826 10)"/>
                        </g>
                    </g>
                </g>
            </g>
        </g>
    </g>
</svg>
