<svg xmlns="http://www.w3.org/2000/svg" width="20" height="20" viewBox="0 0 20 20">
    <g fill="none" fill-rule="evenodd">
        <g>
            <g>
                <g>
                    <path d="M0 0H20V20H0z" transform="translate(-456 -212) translate(444 206) translate(12 6)"/>
                    <path fill="currentColor" fill-opacity=".4" d="M8.875 3c3.245 0 5.876 2.63 5.876 5.875 0 1.27-.402 2.444-1.086 3.405l2.47 2.47c.383.383.383 1.003 0 1.386-.382.382-1.002.382-1.384 0l-2.471-2.471c-.96.684-2.136 1.086-3.405 1.086C5.631 14.75 3 12.12 3 8.875 3 5.631 5.63 3 8.875 3zm0 1.958c-2.163 0-3.917 1.754-3.917 3.917 0 2.164 1.754 3.917 3.917 3.917 2.164 0 3.917-1.753 3.917-3.917 0-2.163-1.753-3.917-3.917-3.917z" transform="translate(-456 -212) translate(444 206) translate(12 6)"/>
                </g>
            </g>
        </g>
    </g>
</svg>
