<svg xmlns="http://www.w3.org/2000/svg" width="24" height="24" viewBox="0 0 24 24">
    <g fill="none" fill-rule="evenodd">
        <g>
            <g>
                <g>
                    <g>
                        <path d="M0 0L24 0 24 24 0 24z" transform="translate(-1103 -440) translate(738 216) translate(40 192) translate(325 32)"/>
                        <path fill="currentColor" fill-rule="nonzero" d="M12 4.5C7 4.5 2.73 7.61 1 12c1.73 4.39 6 7.5 11 7.5s9.27-3.11 11-7.5c-1.73-4.39-6-7.5-11-7.5zM12 17c-2.76 0-5-2.24-5-5s2.24-5 5-5 5 2.24 5 5-2.24 5-5 5zm0-8c-1.66 0-3 1.34-3 3s1.34 3 3 3 3-1.34 3-3-1.34-3-3-3z" opacity=".6" transform="translate(-1103 -440) translate(738 216) translate(40 192) translate(325 32)"/>
                    </g>
                </g>
            </g>
        </g>
    </g>
</svg>
