<svg xmlns="http://www.w3.org/2000/svg" width="24" height="24" viewBox="0 0 24 24">
    <g fill="none" fill-rule="evenodd" opacity=".6">
        <g>
            <g>
                <g>
                    <path d="M0 0L24 0 24 24 0 24z" transform="translate(-1259 -266) translate(1235 254) translate(24 12)"/>
                    <path fill="#141029" fill-rule="nonzero" d="M17 2c.55 0 1 .45 1 1v1h1c1.1 0 2 .9 2 2v14c0 1.1-.9 2-2 2H5c-1.11 0-2-.9-2-2l.01-14c0-1.1.88-2 1.99-2h1V3c0-.55.45-1 1-1s1 .45 1 1v1h8V3c0-.55.45-1 1-1zm2 7H5v10c0 .55.45 1 1 1h12c.55 0 1-.45 1-1V9zM8.5 11c.828 0 1.5.672 1.5 1.5S9.328 14 8.5 14 7 13.328 7 12.5 7.672 11 8.5 11zm10-5h-13c-.276 0-.5.224-.5.5s.224.5.5.5h13c.276 0 .5-.224.5-.5s-.224-.5-.5-.5z" transform="translate(-1259 -266) translate(1235 254) translate(24 12)"/>
                </g>
            </g>
        </g>
    </g>
</svg>
