<svg xmlns="http://www.w3.org/2000/svg" width="20" height="20" viewBox="0 0 20 20">
    <g fill="none" fill-rule="evenodd">
        <g>
            <g>
                <g>
                    <g>
                        <g>
                            <g>
                                <path d="M0 0H20V20H0z" transform="translate(-698 -3829) translate(486 3701) translate(0 4) translate(16 116) translate(180 8) translate(16)"/>
                                <g fill="currentColor" fill-rule="nonzero">
                                    <path d="M6 0c.552 0 1 .448 1 1l-.001 4H11c.552 0 1 .448 1 1s-.448 1-1 1H6.999L7 11c0 .552-.448 1-1 1s-1-.448-1-1l-.001-4H1c-.552 0-1-.448-1-1s.448-1 1-1h3.999L5 1c0-.552.448-1 1-1z" transform="translate(-698 -3829) translate(486 3701) translate(0 4) translate(16 116) translate(180 8) translate(16) rotate(45 3.172 12.828)"/>
                                </g>
                            </g>
                        </g>
                    </g>
                </g>
            </g>
        </g>
    </g>
</svg>
