<svg width="14" height="39" viewBox="0 0 14 39" fill="none" xmlns="http://www.w3.org/2000/svg">
<path d="M6.62895 11.0197C9.67197 11.0197 12.1388 8.55289 12.1388 5.50987C12.1388 2.46685 9.67197 0 6.62895 0C3.58593 0 1.11908 2.46685 1.11908 5.50987C1.11908 8.55289 3.58593 11.0197 6.62895 11.0197Z" fill="#F545AD"/>
<path d="M11.624 25.5695H12.3112C12.6335 25.5695 12.938 25.4307 13.1506 25.1889C13.3633 24.9494 13.4618 24.6271 13.4215 24.3092L12.4164 16.374C12.2821 15.2369 11.3241 14.3774 10.1847 14.3774H3.24561C2.10401 14.3774 1.14597 15.2369 1.01614 16.3628L0.00884997 24.3092C-0.0314416 24.6271 0.0670489 24.9494 0.279699 25.1889C0.492349 25.4307 0.796774 25.5695 1.11911 25.5695H1.80406L0.0580952 30.8119C-0.0560642 31.1521 0.00213469 31.5281 0.210308 31.8191C0.420719 32.1124 0.758721 32.2847 1.11911 32.2847H2.40844L3.21651 37.1287C3.39782 38.2121 4.32676 39 5.42583 39H8.00449C9.10355 39 10.0325 38.2121 10.2116 37.1287L11.0219 32.2847H12.3112C12.6716 32.2847 13.0096 32.1124 13.2178 31.8191C13.4304 31.5281 13.4864 31.1521 13.3722 30.8119L11.624 25.5695V25.5695Z" fill="#F545AD"/>
</svg>
