<svg width="15" height="40" viewBox="0 0 15 40" fill="none" xmlns="http://www.w3.org/2000/svg">
<path d="M7.38302 9.846C10.1019 9.846 12.306 7.6419 12.306 4.923C12.306 2.2041 10.1019 0 7.38302 0C4.66412 0 2.46002 2.2041 2.46002 4.923C2.46002 7.6419 4.66412 9.846 7.38302 9.846Z" fill="#4579F5"/>
<path d="M14.763 25.723L13.641 14.526C13.515 13.26 12.461 12.308 11.191 12.308H9.845C9.517 12.308 9.205 12.438 8.973 12.668L7.383 14.258L5.793 12.668C5.562 12.438 5.249 12.308 4.922 12.308H3.575C2.305 12.308 1.252 13.26 1.126 14.523L0.00599984 25.723C-0.0280002 26.07 0.0849999 26.413 0.319 26.673C0.55 26.929 0.882 27.077 1.229 27.077H2.576L3.586 37.169C3.711 38.429 4.766 39.385 6.036 39.385H8.732C10.002 39.385 11.056 38.43 11.182 37.169L12.191 27.077H13.537C13.884 27.077 14.217 26.929 14.45 26.673C14.684 26.415 14.797 26.07 14.763 25.723V25.723Z" fill="#4579F5"/>
</svg>
