<svg xmlns="http://www.w3.org/2000/svg" width="24" height="24" viewBox="0 0 24 24">
    <g fill="none" fill-rule="evenodd" opacity=".6">
        <g>
            <g>
                <g>
                    <g>
                        <g>
                            <path d="M0 0L24 0 24 24 0 24z" transform="translate(-964 -872) translate(0 828) translate(400 32) translate(392 12) translate(172)"/>
                            <path fill="#E0E0FF" fill-opacity=".6" d="M13.8 1.35l6.6 4.95c.471.353.675.931.575 1.474.016.072.025.148.025.226v12c0 .552-.448 1-1 1H5.702l-.026-.001L4 21c-.552 0-1-.448-1-1V8c0-.078.009-.154.026-.226C3.009 7.684 3 7.594 3 7.5c0-.472.222-.917.6-1.2l6.6-4.95c1.067-.8 2.533-.8 3.6 0zM12.948 15h-1.896c-.227 0-.447.077-.624.22L5.702 19h12.596l-4.726-3.78c-.177-.143-.397-.22-.624-.22zM5 10.614V17l4.178-3.343c.107-.085.22-.163.336-.233l-.15.096-.186.137-.397.317L5 10.614zm10.213 3.356l3.777 3.022v-6.379l-3.777 3.357zM12 2.5L5.031 7.75 5 7.749v.025L4.7 8l.02.016c.288.043.557.168.777.363l4.821 4.286c.125.11.232.233.322.364l-.013.001c.14-.02.282-.03.425-.03h1.896c.14 0 .28.01.419.03l-.015-.003c.059-.086.126-.17.201-.248l.118-.114 4.822-4.286c.222-.198.497-.323.788-.364L19.3 8l-.3-.225V7.75h-.033L12 2.5z" transform="translate(-964 -872) translate(0 828) translate(400 32) translate(392 12) translate(172)"/>
                        </g>
                    </g>
                </g>
            </g>
        </g>
    </g>
</svg>
