<svg xmlns="http://www.w3.org/2000/svg" width="24" height="24" viewBox="0 0 24 24">
    <g fill="none" fill-rule="evenodd" opacity=".6">
        <g>
            <g>
                <g>
                    <g>
                        <g>
                            <path d="M0 0H24V24H0z" transform="translate(-628 -872) translate(0 828) translate(400 32) translate(216) translate(12 12)"/>
                            <path fill="#E0E0FF" fill-opacity=".6" d="M12.338 4.001c1.405.007 6.77.06 8.257.462.947.254 1.692 1.005 1.945 1.957.403 1.511.453 4.459.46 5.172v.316c-.007.713-.057 3.66-.46 5.172-.253.952-.998 1.703-1.945 1.957-1.563.422-7.413.46-8.44.463h-.31c-1.027-.004-6.877-.041-8.44-.463-.947-.254-1.692-1.005-1.945-1.957-.388-1.457-.449-4.25-.458-5.087v-.486c.01-.837.07-3.63.458-5.087.253-.952.998-1.703 1.945-1.957 1.487-.401 6.852-.455 8.257-.462zM9.75 8.48v6.542l5.75-3.27-5.75-3.272z" transform="translate(-628 -872) translate(0 828) translate(400 32) translate(216) translate(12 12)"/>
                        </g>
                    </g>
                </g>
            </g>
        </g>
    </g>
</svg>
