<svg xmlns="http://www.w3.org/2000/svg" width="20" height="20" viewBox="0 0 20 20">
    <g fill="none" fill-rule="evenodd">
        <g>
            <g>
                <g>
                    <g>
                        <path d="M0 0L20 0 20 20 0 20z" transform="translate(-509 -2547) translate(166 2481) translate(247 66) translate(96)"/>
                        <path fill="currentColor" fill-rule="nonzero" d="M12.5 10c1.842 0 3.333-1.492 3.333-3.333 0-1.842-1.491-3.334-3.333-3.334S9.167 4.825 9.167 6.667C9.167 8.508 10.658 10 12.5 10zm0-5c.917 0 1.667.75 1.667 1.667 0 .916-.75 1.666-1.667 1.666s-1.667-.75-1.667-1.666c0-.917.75-1.667 1.667-1.667zm0 6.667c-2.225 0-6.667 1.116-6.667 3.333v1.667h13.334V15c0-2.217-4.442-3.333-6.667-3.333zM7.5 15c.183-.6 2.758-1.667 5-1.667 2.25 0 4.833 1.075 5 1.667h-10zM5 12.5V10h2.5V8.333H5v-2.5H3.333v2.5h-2.5V10h2.5v2.5H5z" transform="translate(-509 -2547) translate(166 2481) translate(247 66) translate(96)"/>
                    </g>
                </g>
            </g>
        </g>
    </g>
</svg>
