<svg xmlns="http://www.w3.org/2000/svg" width="16" height="16" viewBox="0 0 16 16">
  <g fill="none" fill-rule="evenodd">
    <g>
      <g>
        <g>
          <g>
            <g>
              <g>
                <path d="M0 0L16 0 16 16 0 16z" transform="translate(-670 -330) translate(400 206) translate(16 56) translate(0 48) translate(250 16) translate(4 4)"/>
                <path fill="currentColor" d="M6.367 14.926c-.088 0-.159-.018-.247-.053-.212-.106-.335-.353-.282-.582l.987-4.568-2.47-.83c-.158-.052-.299-.193-.334-.352-.053-.177 0-.353.106-.476L9.065 2.19c.16-.177.406-.247.618-.141.211.106.335.335.3.564L9.224 7.36l2.54.53c.177.034.335.176.388.352.053.176.018.37-.106.511L6.755 14.75c-.088.105-.247.176-.388.176zm-.917-6.79l2.17.74c.246.088.405.353.352.617l-.653 3.034 3.37-3.81-2.153-.44c-.282-.054-.458-.318-.405-.6l.546-3.352-3.227 3.81z" transform="translate(-670 -330) translate(400 206) translate(16 56) translate(0 48) translate(250 16) translate(4 4)"/>
              </g>
            </g>
          </g>
        </g>
      </g>
    </g>
  </g>
</svg>
