<svg xmlns="http://www.w3.org/2000/svg" width="20" height="20" viewBox="0 0 20 20">
    <path fill="currentColor" fill-rule="nonzero" d="M2.5 4.167V7.5h1.667V4.167H7.5V2.5H4.167C3.25 2.5 2.5 3.25 2.5 4.167zM4.167 12.5H2.5v3.333c0 .917.75 1.667 1.667 1.667H7.5v-1.667H4.167V12.5zm11.666 3.333H12.5V17.5h3.333c.917 0 1.667-.75 1.667-1.667V12.5h-1.667v3.333zm0-13.333H12.5v1.667h3.333V7.5H17.5V4.167c0-.917-.75-1.667-1.667-1.667z" transform="translate(-1458 -292) translate(400 198) translate(16 78) translate(16 16) translate(994) translate(32)"/>
</svg>