<svg xmlns="http://www.w3.org/2000/svg" width="20" height="20" viewBox="0 0 20 20">
    <g fill="none" fill-rule="evenodd">
        <g>
            <g>
                <g>
                    <g>
                        <path d="M0 0L20 0 20 20 0 20z" transform="translate(-412 -1270) translate(166 1256) translate(44 8) translate(202 6)"/>
                        <path fill="currentColor" fill-rule="nonzero" d="M9.167 15h1.666v-1.667H9.167V15zM10 1.667C5.4 1.667 1.667 5.4 1.667 10S5.4 18.333 10 18.333 18.333 14.6 18.333 10 14.6 1.667 10 1.667zm0 15c-3.675 0-6.667-2.992-6.667-6.667S6.325 3.333 10 3.333 16.667 6.325 16.667 10 13.675 16.667 10 16.667zM10 5C8.158 5 6.667 6.492 6.667 8.333h1.666c0-.916.75-1.666 1.667-1.666s1.667.75 1.667 1.666c0 1.667-2.5 1.459-2.5 4.167h1.666c0-1.875 2.5-2.083 2.5-4.167C13.333 6.492 11.842 5 10 5z" transform="translate(-412 -1270) translate(166 1256) translate(44 8) translate(202 6)"/>
                    </g>
                </g>
            </g>
        </g>
    </g>
</svg>
