<svg xmlns="http://www.w3.org/2000/svg" width="16" height="16" viewBox="0 0 16 16">
    <g fill="none" fill-rule="evenodd">
        <g>
            <g>
                <g>
                    <path d="M0 0L16 0 16 16 0 16z" transform="translate(-416 -846) translate(416 844) translate(0 2)"/>
                    <path fill="currentColor" fill-rule="nonzero" d="M8 2c3.314 0 6 2.686 6 6s-2.686 6-6 6-6-2.686-6-6 2.686-6 6-6zm0 1.333c-2.577 0-4.667 2.09-4.667 4.667S5.423 12.667 8 12.667s4.667-2.09 4.667-4.667S10.577 3.333 8 3.333zm0 3.334c.368 0 .667.298.667.666v3.334c0 .368-.299.666-.667.666-.368 0-.667-.298-.667-.666V7.333c0-.368.299-.666.667-.666zm0-2c.368 0 .667.298.667.666C8.667 5.702 8.368 6 8 6c-.368 0-.667-.298-.667-.667 0-.368.299-.666.667-.666z" transform="translate(-416 -846) translate(416 844) translate(0 2)"/>
                </g>
            </g>
        </g>
    </g>
</svg>
