<svg xmlns="http://www.w3.org/2000/svg" width="20" height="20" viewBox="0 0 20 20">
    <path fill="currentColor" fill-rule="nonzero" d="M10 2.5c4.142 0 7.5 3.358 7.5 7.5 0 4.142-3.358 7.5-7.5 7.5-4.142 0-7.5-3.358-7.5-7.5 0-4.142 3.358-7.5 7.5-7.5zm0 1.667c-3.222 0-5.833 2.611-5.833 5.833S6.778 15.833 10 15.833s5.833-2.611 5.833-5.833S13.222 4.167 10 4.167zm0 4.166c.46 0 .833.373.833.834v4.166c0 .46-.373.834-.833.834-.46 0-.833-.373-.833-.834V9.167c0-.46.373-.834.833-.834zm0-2.5c.46 0 .833.373.833.834 0 .46-.373.833-.833.833-.46 0-.833-.373-.833-.833 0-.46.373-.834.833-.834z" transform="translate(-743 -294) translate(400 198) translate(16 78) translate(16 16) translate(311 2)"/>
</svg>
