<svg xmlns="http://www.w3.org/2000/svg" width="24" height="24" viewBox="0 0 24 24">
    <g fill="none" fill-rule="evenodd">
        <g>
            <g>
                <g>
                    <g>
                        <path d="M0 0L24 0 24 24 0 24z" transform="translate(-925 -581) translate(400 198) translate(16 112) translate(509 271)"/>
                        <path fill="currentColor" d="M13.35 20.13c-.76.69-1.93.69-2.69-.01l-.11-.1C5.3 15.27 1.87 12.16 2 8.28c.06-1.7.93-3.33 2.34-4.29 2.64-1.8 5.9-.96 7.66 1.1 1.76-2.06 5.02-2.91 7.66-1.1 1.41.96 2.28 2.59 2.34 4.29.14 3.88-3.3 6.99-8.55 11.76l-.1.09zm-1.338-1.487l.093-.083c4.781-4.344 6.27-5.877 7.244-7.692.476-.887.682-1.69.652-2.517-.038-1.083-.599-2.117-1.472-2.711-1.608-1.103-3.754-.72-5.008.75L12 8.168l-1.52-1.78c-1.252-1.464-3.4-1.846-5.014-.746-.868.591-1.429 1.625-1.467 2.704-.082 2.458 1.459 4.369 7.896 10.193l.115.105.002-.002z" transform="translate(-925 -581) translate(400 198) translate(16 112) translate(509 271)"/>
                    </g>
                </g>
            </g>
        </g>
    </g>
</svg>
