<svg xmlns="http://www.w3.org/2000/svg" width="20" height="20" viewBox="0 0 20 20">
    <g fill="none" fill-rule="evenodd">
        <g>
            <g>
                <g>
                    <path d="M0 0L20 0 20 20 0 20z" transform="translate(-1240 -1507) translate(166 1493) rotate(90 540 554)"/>
                    <path fill="currentColor" fill-rule="nonzero" d="M5 8.333c-.917 0-1.667.75-1.667 1.667s.75 1.667 1.667 1.667 1.667-.75 1.667-1.667S5.917 8.333 5 8.333zm10 0c-.917 0-1.667.75-1.667 1.667s.75 1.667 1.667 1.667 1.667-.75 1.667-1.667-.75-1.667-1.667-1.667zm-5 0c-.917 0-1.667.75-1.667 1.667s.75 1.667 1.667 1.667 1.667-.75 1.667-1.667-.75-1.667-1.667-1.667z" transform="translate(-1240 -1507) translate(166 1493) rotate(90 540 554)"/>
                </g>
            </g>
        </g>
    </g>
</svg>
