<svg xmlns="http://www.w3.org/2000/svg" width="24" height="24" viewBox="0 0 24 24">
    <g fill="none" fill-rule="evenodd">
        <g>
            <g>
                <g>
                    <g>
                        <path d="M0 0L24 0 24 24 0 24z" transform="translate(-92 -340) translate(0 240) translate(80 88) translate(12 12)"/>
                        <path fill="currentColor" fill-rule="nonzero" d="M17 3H5c-1.11 0-2 .9-2 2v14c0 1.1.89 2 2 2h14c1.1 0 2-.9 2-2V7l-4-4zm-5 16c-1.66 0-3-1.34-3-3s1.34-3 3-3 3 1.34 3 3-1.34 3-3 3zm3-10H5V5h10v4z" transform="translate(-92 -340) translate(0 240) translate(80 88) translate(12 12)"/>
                    </g>
                </g>
            </g>
        </g>
    </g>
</svg>
