<svg xmlns="http://www.w3.org/2000/svg" width="24" height="24" viewBox="0 0 24 24">
    <g fill="none" fill-rule="evenodd">
        <g>
            <g>
                <g>
                    <g>
                        <g>
                            <path d="M0 0H24V24H0z" transform="translate(-961 -581) translate(400 198) translate(16 112) translate(509 271) translate(36)"/>
                            <path fill="currentColor" stroke="#141029" stroke-width=".3" d="M2.345 11.486l4.883 2.433c.189.094.412.087.592-.019l4.347-2.527-2.631 2.332c-.134.119-.21.288-.21.467v5.68c0 .598.764.85 1.123.374l2.11-2.806 5.22 2.973c.367.21.836-.001.921-.42L21.956 3.75c.097-.488-.388-.886-.839-.704l-18.72 7.3c-.503.197-.536.9-.052 1.14zm18.163-6.864l-2.861 14.259-4.947-2.817c-.27-.154-.616-.086-.808.167l-1.319 1.753v-3.531l7.115-6.304c.564-.498-.084-1.384-.727-1.007l-9.477 5.51-3.321-1.655 16.345-6.375z" transform="translate(-961 -581) translate(400 198) translate(16 112) translate(509 271) translate(36)"/>
                        </g>
                    </g>
                </g>
            </g>
        </g>
    </g>
</svg>
