<svg xmlns="http://www.w3.org/2000/svg" width="20" height="20" viewBox="0 0 20 20">
    <g fill="none" fill-rule="evenodd">
        <g>
            <g>
                <g>
                    <g>
                        <path d="M0 0L20 0 20 20 0 20z" transform="translate(-587 -1270) translate(166 1256) translate(421 12) translate(0 2)"/>
                        <path fill="currentColor" fill-rule="nonzero" d="M9.167 15h1.666c.459 0 .834-.375.834-.833 0-.459-.375-.834-.834-.834H9.167c-.459 0-.834.375-.834.834 0 .458.375.833.834.833zM2.5 5.833c0 .459.375.834.833.834h13.334c.458 0 .833-.375.833-.834 0-.458-.375-.833-.833-.833H3.333c-.458 0-.833.375-.833.833zm3.333 5h8.334c.458 0 .833-.375.833-.833 0-.458-.375-.833-.833-.833H5.833C5.375 9.167 5 9.542 5 10c0 .458.375.833.833.833z" transform="translate(-587 -1270) translate(166 1256) translate(421 12) translate(0 2)"/>
                    </g>
                </g>
            </g>
        </g>
    </g>
</svg>
