<svg xmlns="http://www.w3.org/2000/svg" width="20" height="20" viewBox="0 0 20 20">
  <path fill="currentColor" fill-rule="nonzero" d="M10.5 15.05c-.3.233-.725.233-1.025 0L4.35 11.067c-.3-.234-.717-.234-1.017 0-.425.333-.425.975 0 1.308l5.634 4.383c.6.467 1.441.467 2.05 0l5.633-4.383c.425-.333.425-.975 0-1.308l-.008-.009c-.3-.233-.717-.233-1.017 0L10.5 15.05zm.525-2.517l5.633-4.383c.425-.333.425-.983 0-1.317L11.025 2.45c-.6-.467-1.442-.467-2.05 0L3.342 6.842c-.425.333-.425.983 0 1.316l5.633 4.384c.6.466 1.45.466 2.05-.009z" transform="translate(-1400 -158) translate(400 144) translate(982) translate(18 14)"/>
</svg>
