<svg xmlns="http://www.w3.org/2000/svg" width="20" height="20" viewBox="0 0 20 20">
    <g fill="none" fill-rule="evenodd">
        <g>
            <g>
                <g>
                    <g>
                        <path d="M0 0L20 0 20 20 0 20z" transform="translate(-477 -2547) translate(166 2481) translate(247 66) translate(64)"/>
                        <path fill="currentColor" fill-rule="nonzero" d="M16.375 7.533l-4.033-.35-1.575-3.708c-.284-.675-1.25-.675-1.534 0L7.658 7.192l-4.025.341c-.733.059-1.033.975-.475 1.459l3.059 2.65-.917 3.933c-.167.717.608 1.283 1.242.9L10 14.392l3.458 2.091c.634.384 1.409-.183 1.242-.9l-.917-3.941 3.059-2.65c.558-.484.266-1.4-.467-1.459zM10 12.833l-3.133 1.892.833-3.567-2.767-2.4 3.65-.316L10 5.083l1.425 3.367 3.65.317-2.767 2.4.834 3.566-3.142-1.9z" transform="translate(-477 -2547) translate(166 2481) translate(247 66) translate(64)"/>
                    </g>
                </g>
            </g>
        </g>
    </g>
</svg>
