<svg xmlns="http://www.w3.org/2000/svg" width="20" height="20" viewBox="0 0 20 20">
    <g fill="none" fill-rule="evenodd">
        <g>
            <g>
                <g>
                    <g transform="translate(-541 -2547) translate(166 2481) translate(247 66) translate(128)">
                        <path d="M0 0L20 0 20 20 0 20z"/>
                        <path fill="currentColor" fill-rule="nonzero" d="M17.234 10.025l-6.6-6.6C10.37 3.161 10.004 3 9.6 3H4.467C3.66 3 3 3.66 3 4.467V9.6c0 .403.161.77.433 1.041l6.6 6.6c.264.264.63.426 1.034.426.403 0 .77-.162 1.034-.433l5.133-5.133c.271-.264.433-.631.433-1.034 0-.404-.169-.778-.433-1.042zm-6.167 6.182L4.467 9.6V4.467H9.6v-.008l6.6 6.6-5.133 5.148z"/>
                        <circle cx="7.25" cy="7.25" r="1.25" fill="currentColor" fill-rule="nonzero"/>
                    </g>
                </g>
            </g>
        </g>
    </g>
</svg>
