<svg xmlns="http://www.w3.org/2000/svg" width="20" height="20" viewBox="0 0 20 20">
    <g fill="none" fill-rule="evenodd">
        <g>
            <g>
                <g>
                    <g>
                        <g>
                            <path d="M0 0L20 0 20 20 0 20z" transform="translate(-1051 -268) translate(400 206) translate(16 56) translate(423 4) translate(212 2)"/>
                            <path fill="currentColor" fill-rule="nonzero" d="M14.708 5.292c-1.358-1.359-3.283-2.142-5.4-1.925-3.058.308-5.575 2.791-5.916 5.85-.459 4.041 2.666 7.45 6.608 7.45 2.658 0 4.942-1.559 6.008-3.8.267-.559-.133-1.2-.75-1.2-.308 0-.6.166-.733.441-.942 2.025-3.2 3.309-5.667 2.759-1.85-.409-3.341-1.917-3.733-3.767C4.425 7.867 6.883 5 10 5c1.383 0 2.617.575 3.517 1.483l-1.259 1.259c-.525.525-.158 1.425.584 1.425h2.991c.459 0 .834-.375.834-.834V5.342c0-.742-.9-1.117-1.425-.592l-.534.542z" transform="translate(-1051 -268) translate(400 206) translate(16 56) translate(423 4) translate(212 2)"/>
                        </g>
                    </g>
                </g>
            </g>
        </g>
    </g>
</svg>
