<svg xmlns="http://www.w3.org/2000/svg" width="24" height="24" viewBox="0 0 24 24">
  <path fill="currentColor" fill-rule="nonzero" stroke="currentColor" stroke-width=".3" d="M18.771 3v1.194h1.438l-2.805 2.491c-.993-.952-2.377-1.544-3.906-1.544-2.058 0-3.853 1.071-4.785 2.649-.08-.004-.16-.006-.24-.006-3.014 0-5.466 2.297-5.466 5.12 0 2.62 2.114 4.788 4.828 5.084v1.587H5.927v1.194h1.908V22.5h1.274v-1.731h1.992v-1.194H9.109v-1.587c1.787-.195 3.313-1.2 4.148-2.613.08.003.16.005.24.005 3.014 0 5.465-2.296 5.465-5.12 0-.958-.283-1.857-.775-2.625l3.046-2.706v1.483h1.274V3h-3.736zM8.472 16.83c-2.31 0-4.19-1.762-4.19-3.926 0-2.08 1.736-3.788 3.922-3.917-.112.407-.171.834-.171 1.274 0 2.303 1.631 4.255 3.868 4.896-.758 1.01-2.013 1.672-3.429 1.672zm4.003-2.762c-1.818-.43-3.168-1.973-3.168-3.807 0-.405.066-.796.188-1.164 1.818.429 3.168 1.973 3.168 3.807 0 .405-.066.796-.188 1.164zm1.29.11c.112-.407.172-.834.172-1.274 0-2.303-1.632-4.255-3.869-4.897.76-1.01 2.013-1.672 3.43-1.672 2.31 0 4.19 1.761 4.19 3.926 0 2.08-1.736 3.787-3.922 3.917z" opacity=".6" transform="translate(-288 -1304) translate(134 1152) translate(32 -34) translate(122 186)"/>
</svg>
