<svg xmlns="http://www.w3.org/2000/svg" width="20" height="20" viewBox="0 0 20 20">
  <path fill="currentColor" fill-rule="nonzero" d="M10 1.667c3.217 0 5.833 2.616 5.833 5.833 0 4.375-5.833 10.833-5.833 10.833l-.343-.394c-1.251-1.466-5.49-6.71-5.49-10.439 0-3.217 2.616-5.833 5.833-5.833zm0 1.666c-2.296 0-4.167 1.87-4.167 4.167 0 .737.249 1.684.73 2.777.46 1.044 1.11 2.175 1.902 3.348.367.545.751 1.078 1.142 1.593l.393.508.393-.508c.39-.515.775-1.048 1.142-1.593.791-1.173 1.442-2.304 1.901-3.348.482-1.093.73-2.04.73-2.777 0-2.296-1.87-4.167-4.166-4.167zm0 2.917c.69 0 1.25.56 1.25 1.25S10.69 8.75 10 8.75 8.75 8.19 8.75 7.5 9.31 6.25 10 6.25z" transform="translate(-290 -558) translate(134 376) translate(32 32) translate(124 150)"/>
</svg>
