<svg xmlns="http://www.w3.org/2000/svg" width="20" height="20" viewBox="0 0 20 20">
  <path fill="currentColor" d="M7.5 8.333c2.826 0 5.417 1.005 7.436 2.677.042.213.064.432.064.657C15 13.507 13.508 15 11.667 15H3.333C1.493 15 0 13.508 0 11.667c0-.225.022-.445.065-.657C2.083 9.338 4.675 8.333 7.5 8.333zM7.5 10c-2.124 0-4.142.662-5.821 1.868.1.826.802 1.465 1.654 1.465h8.334c.852 0 1.555-.64 1.654-1.465C11.641 10.662 9.623 10 7.5 10zm0-10c2.072 0 3.75 1.678 3.75 3.75S9.572 7.5 7.5 7.5 3.75 5.822 3.75 3.75 5.428 0 7.5 0zm0 1.667c-1.151 0-2.083.932-2.083 2.083 0 1.151.932 2.083 2.083 2.083 1.151 0 2.083-.932 2.083-2.083 0-1.151-.932-2.083-2.083-2.083z" transform="translate(-290 -530) translate(134 376) translate(32 32) translate(124 122) translate(2.5 2.5)"/>
</svg>
