<svg xmlns="http://www.w3.org/2000/svg" width="24" height="24" viewBox="0 0 24 24">
    <g fill="none" fill-rule="evenodd">
        <g>
            <g>
                <g>
                    <g>
                        <g>
                            <path d="M0 0H24V24H0z" transform="translate(-1486 -272) translate(0 248) translate(1294 12) translate(64 12) translate(128)"/>
                            <g fill="#E0E0FF" fill-opacity=".4" fill-rule="nonzero">
                                <path d="M2.12.29L6 4.17 9.88.29c.39-.39 1.02-.39 1.41 0 .39.39.39 1.02 0 1.41L6.7 6.29c-.39.39-1.02.39-1.41 0L.7 1.7C.31 1.31.31.68.7.29c.39-.38 1.03-.39 1.42 0z" transform="translate(-1486 -272) translate(0 248) translate(1294 12) translate(64 12) translate(128) translate(6 9)"/>
                            </g>
                        </g>
                    </g>
                </g>
            </g>
        </g>
    </g>
</svg>
