<svg xmlns="http://www.w3.org/2000/svg" width="16" height="16" viewBox="0 0 16 16">
  <path fill="#E4405F" d="M8.877 1.334c1.038.003 1.296.013 1.872.04.71.032 1.194.145 1.618.31.438.17.81.398 1.18.768.371.37.6.743.77 1.181.164.424.277.909.31 1.618l.016.368.006.172c.012.373.016.787.017 1.733v.952c-.001 1.382-.01 1.63-.04 2.273-.032.71-.145 1.194-.31 1.618-.17.438-.398.81-.768 1.18-.37.371-.743.6-1.181.77-.424.164-.909.277-1.618.31-.644.029-.89.038-2.273.04h-.952c-.946-.002-1.36-.006-1.733-.018l-.172-.006-.368-.016c-.71-.033-1.194-.146-1.618-.31-.438-.17-.81-.399-1.18-.77-.371-.37-.6-.742-.77-1.18-.164-.424-.277-.909-.31-1.618-.026-.576-.036-.834-.039-1.872V7.123c.003-1.038.013-1.296.04-1.872.032-.71.145-1.194.31-1.618.17-.438.398-.81.768-1.18.37-.371.743-.6 1.181-.77.424-.164.909-.277 1.618-.31.576-.026.834-.036 1.872-.039zm-.204 1.201H7.327c-1.177.002-1.418.01-2.02.038-.65.03-1.004.139-1.239.23-.311.12-.533.265-.766.499-.234.233-.378.455-.499.766-.091.235-.2.588-.23 1.238-.027.603-.036.844-.038 2.021v1.346c.001.785.006 1.154.017 1.49l.006.169.015.362c.03.65.139 1.003.23 1.238.12.311.265.533.499.766.233.234.455.378.766.499.235.091.588.2 1.238.23.57.026.816.035 1.833.038h1.722c1.017-.003 1.264-.012 1.833-.038.65-.03 1.003-.139 1.238-.23.311-.12.533-.265.766-.499.234-.233.378-.455.499-.766.091-.235.2-.588.23-1.238.026-.57.035-.816.038-1.833v-.393-.712-.617c-.003-1.017-.012-1.264-.038-1.833-.03-.65-.139-1.003-.23-1.238-.12-.311-.265-.533-.499-.766-.233-.234-.455-.378-.766-.499-.235-.091-.588-.2-1.238-.23l-.362-.015-.168-.006c-.337-.011-.706-.016-1.491-.017zM8 4.577c1.89 0 3.423 1.532 3.423 3.423 0 1.89-1.532 3.423-3.423 3.423-1.89 0-3.423-1.532-3.423-3.423 0-1.89 1.532-3.423 3.423-3.423zm0 1.2c-1.227 0-2.222.996-2.222 2.223 0 1.227.995 2.222 2.222 2.222 1.227 0 2.222-.995 2.222-2.222 0-1.227-.995-2.222-2.222-2.222zm3.559-2.136c.442 0 .8.358.8.8 0 .442-.358.8-.8.8-.442 0-.8-.358-.8-.8 0-.442.358-.8.8-.8z" transform="translate(-254 -4805) translate(134 4744) translate(0 28) translate(16 25) translate(96) translate(8 8)"/>
</svg>
