<svg xmlns="http://www.w3.org/2000/svg" width="16" height="16" viewBox="0 0 16 16">
  <path fill="#F58D00" d="M8 1.333c3.682 0 6.667 2.985 6.667 6.667S11.682 14.667 8 14.667 1.333 11.682 1.333 8 4.318 1.333 8 1.333zm1.545 6.992c-.94.59-2.15.59-3.089 0-.314-.198-.73-.104-.927.211-.197.314-.103.729.211.927.415.26.865.445 1.332.552L5.79 11.297c-.263.263-.263.688 0 .95.131.132.303.197.475.197s.344-.065.475-.196L8 10.988l1.261 1.26c.262.262.688.262.95 0 .263-.263.263-.689 0-.95l-1.283-1.283c.468-.107.918-.292 1.333-.552.314-.198.408-.613.21-.927-.197-.315-.612-.41-.926-.211zM8 3.555c-1.266 0-2.295 1.03-2.295 2.295s1.03 2.293 2.295 2.293 2.294-1.028 2.294-2.293c0-1.265-1.03-2.294-2.294-2.294zM8 4.9c.523 0 .95.426.95.95 0 .523-.427.95-.95.95-.524 0-.95-.427-.95-.95 0-.524.426-.95.95-.95z" transform="translate(-350 -4805) translate(134 4744) translate(0 28) translate(16 25) translate(192) translate(8 8)"/>
</svg>
