<svg xmlns="http://www.w3.org/2000/svg" width="16" height="16" viewBox="0 0 16 16">
  <path fill="#1DA1F2" d="M13.301 5.636c0-.117 0-.235-.005-.352.533-.384.997-.87 1.365-1.419-.49.219-1.018.363-1.573.432.565-.336.997-.874 1.205-1.514-.528.314-1.114.538-1.738.661-.502-.533-1.211-.864-1.995-.864-1.51 0-2.736 1.227-2.736 2.736 0 .213.027.421.07.624-2.273-.112-4.289-1.205-5.638-2.859-.235.406-.368.875-.368 1.376 0 .95.485 1.787 1.216 2.278-.448-.016-.87-.139-1.237-.342v.038c0 1.322.944 2.432 2.192 2.682-.23.064-.47.096-.72.096-.176 0-.347-.016-.512-.048.346 1.088 3.493 1.163 2.554 1.899-.938.736-2.117 1.173-3.397 1.173-.219 0-.437-.01-.65-.037 1.205.768 2.645 1.221 4.186 1.221 5.03 0 7.781-4.17 7.781-7.781z" transform="translate(-302 -4805) translate(134 4744) translate(0 28) translate(16 25) translate(144) translate(8 8)"/>
</svg>
