<svg xmlns="http://www.w3.org/2000/svg" width="24" height="24" viewBox="0 0 24 24">
    <path fill="#4680C2" d="M15.07 2C20.66 2 22 3.327 22 8.93v6.14c0 5.603-1.327 6.93-6.93 6.93H8.93C3.327 22 2 20.673 2 15.07V8.93C2 3.327 3.327 2 8.93 2zM7.307 8.337H5.853c-.41 0-.494.198-.494.41 0 .395.494 2.3 2.3 4.84 1.2 1.737 2.908 2.668 4.447 2.668.931 0 1.044-.211 1.044-.564v-1.313c0-.41.085-.494.381-.494.212 0 .593.113 1.454.946.988 1.002 1.158 1.44 1.708 1.44h1.454c.41 0 .62-.212.48-.621-.127-.41-.607-1.003-1.228-1.708-.339-.395-.847-.833-1.002-1.045-.212-.282-.156-.395 0-.649 0 0 1.778-2.512 1.962-3.36.098-.31 0-.536-.438-.536h-1.454c-.367 0-.536.198-.635.41 0 0-.748 1.806-1.792 2.978-.34.339-.494.452-.678.452-.085 0-.226-.113-.226-.424V8.874c0-.367-.113-.537-.423-.537h-2.287c-.226 0-.367.17-.367.34 0 .352.523.437.579 1.425v2.145c0 .466-.085.55-.268.55-.494 0-1.694-1.82-2.414-3.895-.14-.395-.282-.565-.649-.565z" transform="translate(-746 -456) translate(400 198) translate(16 78) translate(0 168) translate(330 12)"/>
</svg>
