<svg xmlns="http://www.w3.org/2000/svg" width="16" height="16" viewBox="0 0 16 16">
  <path fill="red" d="M8.188 2.667c.873.004 4.537.037 5.542.308.631.17 1.128.67 1.297 1.305.282 1.06.304 3.177.306 3.51v.088c-.002.332-.024 2.45-.306 3.508-.169.636-.666 1.136-1.297 1.306-1.04.28-4.925.305-5.622.308h-.216c-.697-.003-4.582-.028-5.622-.308-.631-.17-1.128-.67-1.297-1.306-.27-1.013-.302-2.994-.306-3.455v-.195c.004-.461.036-2.443.306-3.456.169-.635.666-1.135 1.297-1.305 1.005-.27 4.669-.304 5.542-.308zM6.5 5.653v4.361l3.833-2.18L6.5 5.652z" transform="translate(-398 -4805) translate(134 4744) translate(0 28) translate(16 25) translate(240) translate(8 8)"/>
</svg>
